<mxfile host="app.diagrams.net" modified="2020-09-30T08:30:29.884Z" agent="5.0 (Windows)" etag="_lFC2J2rUgV6_FQ9KIWL" version="13.7.6" type="github">
  <diagram name="Page-1" id="9f46799a-70d6-7492-0946-bef42562c5a5">
    <mxGraphModel dx="1102" dy="650" grid="1" gridSize="4" guides="1" tooltips="1" connect="1" arrows="1" fold="1" page="0" pageScale="1" pageWidth="1100" pageHeight="850" background="#F1FAEE" math="0" shadow="0">
      <root>
        <mxCell id="0" />
        <mxCell id="1" parent="0" />
        <mxCell id="ISjltHY7QByod22dafSJ-1" value="房源服务" style="ellipse;whiteSpace=wrap;html=1;rounded=0;sketch=0;strokeColor=#457B9D;fillColor=#A8DADC;fontColor=#1D3557;" vertex="1" parent="1">
          <mxGeometry x="444" y="196" width="120" height="80" as="geometry" />
        </mxCell>
        <mxCell id="ISjltHY7QByod22dafSJ-2" value="商家" style="rounded=0;whiteSpace=wrap;html=1;sketch=0;strokeColor=#457B9D;fillColor=#A8DADC;fontColor=#1D3557;" vertex="1" parent="1">
          <mxGeometry x="232" y="210" width="120" height="60" as="geometry" />
        </mxCell>
        <mxCell id="ISjltHY7QByod22dafSJ-3" value="系统管理员" style="rounded=0;whiteSpace=wrap;html=1;sketch=0;strokeColor=#457B9D;fillColor=#A8DADC;fontColor=#1D3557;" vertex="1" parent="1">
          <mxGeometry x="668" y="196" width="120" height="60" as="geometry" />
        </mxCell>
        <mxCell id="ISjltHY7QByod22dafSJ-15" style="edgeStyle=orthogonalEdgeStyle;curved=0;rounded=1;sketch=0;orthogonalLoop=1;jettySize=auto;html=1;exitX=0.642;exitY=1;exitDx=0;exitDy=0;entryX=0.642;entryY=0.013;entryDx=0;entryDy=0;entryPerimeter=0;strokeColor=#457B9D;fillColor=#A8DADC;fontColor=#1D3557;exitPerimeter=0;" edge="1" parent="1" source="ISjltHY7QByod22dafSJ-4" target="ISjltHY7QByod22dafSJ-1">
          <mxGeometry relative="1" as="geometry" />
        </mxCell>
        <mxCell id="ISjltHY7QByod22dafSJ-4" value="普通用户" style="rounded=0;whiteSpace=wrap;html=1;sketch=0;strokeColor=#457B9D;fillColor=#A8DADC;fontColor=#1D3557;" vertex="1" parent="1">
          <mxGeometry x="444" y="56" width="120" height="60" as="geometry" />
        </mxCell>
        <mxCell id="ISjltHY7QByod22dafSJ-5" value="" style="endArrow=classic;html=1;strokeColor=#457B9D;fillColor=#A8DADC;fontColor=#1D3557;exitX=1;exitY=0.25;exitDx=0;exitDy=0;entryX=0.025;entryY=0.35;entryDx=0;entryDy=0;entryPerimeter=0;" edge="1" parent="1" source="ISjltHY7QByod22dafSJ-2" target="ISjltHY7QByod22dafSJ-1">
          <mxGeometry width="50" height="50" relative="1" as="geometry">
            <mxPoint x="524" y="278" as="sourcePoint" />
            <mxPoint x="574" y="228" as="targetPoint" />
          </mxGeometry>
        </mxCell>
        <mxCell id="ISjltHY7QByod22dafSJ-6" value="" style="endArrow=classic;html=1;strokeColor=#457B9D;fillColor=#A8DADC;fontColor=#1D3557;exitX=0.05;exitY=0.738;exitDx=0;exitDy=0;exitPerimeter=0;entryX=1;entryY=0.75;entryDx=0;entryDy=0;" edge="1" parent="1" source="ISjltHY7QByod22dafSJ-1" target="ISjltHY7QByod22dafSJ-2">
          <mxGeometry width="50" height="50" relative="1" as="geometry">
            <mxPoint x="524" y="278" as="sourcePoint" />
            <mxPoint x="574" y="228" as="targetPoint" />
          </mxGeometry>
        </mxCell>
        <mxCell id="ISjltHY7QByod22dafSJ-7" value="提供房源" style="text;html=1;strokeColor=none;fillColor=none;align=center;verticalAlign=middle;whiteSpace=wrap;rounded=0;sketch=0;fontColor=#1D3557;" vertex="1" parent="1">
          <mxGeometry x="376" y="200" width="56" height="20" as="geometry" />
        </mxCell>
        <mxCell id="ISjltHY7QByod22dafSJ-8" value="房源状态" style="text;html=1;strokeColor=none;fillColor=none;align=center;verticalAlign=middle;whiteSpace=wrap;rounded=0;sketch=0;fontColor=#1D3557;" vertex="1" parent="1">
          <mxGeometry x="374" y="260" width="60" height="16" as="geometry" />
        </mxCell>
        <mxCell id="ISjltHY7QByod22dafSJ-9" value="" style="endArrow=classic;html=1;strokeColor=#457B9D;fillColor=#A8DADC;fontColor=#1D3557;entryX=0.992;entryY=0.338;entryDx=0;entryDy=0;entryPerimeter=0;exitX=0;exitY=0.451;exitDx=0;exitDy=0;exitPerimeter=0;" edge="1" parent="1" source="ISjltHY7QByod22dafSJ-3" target="ISjltHY7QByod22dafSJ-1">
          <mxGeometry width="50" height="50" relative="1" as="geometry">
            <mxPoint x="664" y="228" as="sourcePoint" />
            <mxPoint x="574" y="228" as="targetPoint" />
          </mxGeometry>
        </mxCell>
        <mxCell id="ISjltHY7QByod22dafSJ-11" value="审核房源" style="text;html=1;strokeColor=none;fillColor=none;align=center;verticalAlign=middle;whiteSpace=wrap;rounded=0;sketch=0;fontColor=#1D3557;" vertex="1" parent="1">
          <mxGeometry x="584" y="196" width="56" height="16" as="geometry" />
        </mxCell>
        <mxCell id="ISjltHY7QByod22dafSJ-12" value="" style="endArrow=classic;html=1;strokeColor=#457B9D;fillColor=#A8DADC;fontColor=#1D3557;exitX=1;exitY=0.5;exitDx=0;exitDy=0;entryX=-0.008;entryY=0.65;entryDx=0;entryDy=0;entryPerimeter=0;" edge="1" parent="1" source="ISjltHY7QByod22dafSJ-1" target="ISjltHY7QByod22dafSJ-3">
          <mxGeometry width="50" height="50" relative="1" as="geometry">
            <mxPoint x="524" y="278" as="sourcePoint" />
            <mxPoint x="574" y="228" as="targetPoint" />
          </mxGeometry>
        </mxCell>
        <mxCell id="ISjltHY7QByod22dafSJ-14" value="房源状态" style="text;html=1;strokeColor=none;fillColor=none;align=center;verticalAlign=middle;whiteSpace=wrap;rounded=0;sketch=0;fontColor=#1D3557;" vertex="1" parent="1">
          <mxGeometry x="596" y="244" width="60" height="16" as="geometry" />
        </mxCell>
        <mxCell id="ISjltHY7QByod22dafSJ-16" value="" style="endArrow=classic;html=1;strokeColor=#457B9D;fillColor=#A8DADC;fontColor=#1D3557;entryX=0.367;entryY=1;entryDx=0;entryDy=0;exitX=0.358;exitY=0.013;exitDx=0;exitDy=0;exitPerimeter=0;entryPerimeter=0;" edge="1" parent="1" source="ISjltHY7QByod22dafSJ-1" target="ISjltHY7QByod22dafSJ-4">
          <mxGeometry width="50" height="50" relative="1" as="geometry">
            <mxPoint x="524" y="278" as="sourcePoint" />
            <mxPoint x="574" y="228" as="targetPoint" />
          </mxGeometry>
        </mxCell>
        <mxCell id="ISjltHY7QByod22dafSJ-17" value="浏览房源" style="text;html=1;strokeColor=none;fillColor=none;align=center;verticalAlign=middle;whiteSpace=wrap;rounded=0;sketch=0;fontColor=#1D3557;" vertex="1" parent="1">
          <mxGeometry x="524" y="148" width="52" height="12" as="geometry" />
        </mxCell>
        <mxCell id="ISjltHY7QByod22dafSJ-18" value="房源信息" style="text;html=1;strokeColor=none;fillColor=none;align=center;verticalAlign=middle;whiteSpace=wrap;rounded=0;sketch=0;fontColor=#1D3557;" vertex="1" parent="1">
          <mxGeometry x="428" y="148" width="52" height="20" as="geometry" />
        </mxCell>
      </root>
    </mxGraphModel>
  </diagram>
</mxfile>
